<svg width="156" height="48" viewBox="0 0 156 48" fill="none" xmlns="http://www.w3.org/2000/svg">
<path d="M0 27.4199V21.7301C0 16.7061 2.38775 11.8032 11.2041 11.8032C20.0204 11.8032 22.4082 16.7061 22.4082 21.7301V27.4199C22.4082 32.4438 20.0204 37.3467 11.2041 37.3467C2.38775 37.3467 0 32.4438 0 27.4199ZM15.0612 27.6015V21.5485C15.0612 19.2484 13.8367 17.9167 11.2041 17.9167C8.57143 17.9167 7.34694 19.2484 7.34694 21.5485V27.662C7.34694 29.9621 8.57143 31.2938 11.2041 31.2938C13.8367 31.2938 15.0612 29.9016 15.0612 27.6015Z" fill="white"/>
<path d="M42.1834 36.802V20.6406C42.1834 19.551 41.6936 18.8852 40.4078 18.8852C39.1221 18.8852 36.6119 19.7932 35.0813 20.6406V36.8625H27.7344V12.348H33.1834L33.918 14.2244C37.0405 12.7717 40.4078 11.9848 43.8364 11.8638C48.0609 11.8638 49.5303 14.9508 49.5303 19.7326V36.8625H42.1834V36.802Z" fill="white"/>
<path d="M70.1022 7.62685C69.1226 7.44526 68.143 7.3242 67.1634 7.3242C64.8369 7.3242 64.6532 8.35321 64.6532 9.92698V12.7719H70.2246L69.7349 18.7038H64.7144V36.7416H57.3675V18.7643H53.6328V12.8324H57.3675V9.14009C57.3675 4.11613 59.7553 1.27124 65.7553 1.27124C67.5308 1.27124 69.3063 1.45283 71.0206 1.93707L70.1022 7.62685ZM74.694 36.8021V2.30024L82.041 1.27124V36.8021H74.694Z" fill="white"/>
<path d="M92.6326 46.729L95.5102 36.8626H93.1836L85.5918 12.3481H93L98.0204 29.7201L103.041 12.3481H110.449L102.673 36.8626L99.4898 46.729H92.6326Z" fill="white"/>
<path fill-rule="evenodd" clip-rule="evenodd" d="M153.061 7.68726L151.775 7.38461L148.837 0.423707L147.184 0L148.041 6.47667L143.816 5.44767L142.898 3.14754L141.429 2.78436L141.796 5.32661C130.041 2.54224 118.224 9.74527 115.469 21.367C112.653 32.9886 119.939 44.6709 131.694 47.3947C133.347 47.7579 135.061 48 136.714 48C137.633 48 138.49 47.9395 139.408 47.8184C139.041 47.8184 138.735 47.8184 138.429 47.8184C126.612 48.5448 116.449 39.6469 115.714 27.9647C114.98 16.2825 123.98 6.23455 135.796 5.5082C136.653 5.44767 137.51 5.44767 138.429 5.5082C139.469 5.5082 140.571 5.56873 141.612 5.75032L141.735 5.81084L140.082 7.86885L141.551 8.23203L143.51 6.71879L147.612 7.92938L145.224 11.0769C136.714 6.96091 126.367 10.4716 122.204 18.8852C118.041 27.2989 121.592 37.5284 130.102 41.6444C138.612 45.7604 148.898 42.3707 153.061 33.8966C156.857 26.2093 154.286 16.9483 147.061 12.227L151.224 9.07944L152.51 9.44262C153.796 9.74527 155.694 10.169 155.878 9.44262C156.184 8.59521 154.286 8.05044 153.061 7.68726ZM133.347 11.4401C132.061 13.0744 131.02 14.8903 130.163 16.7667C129.061 16.2219 128.02 15.6166 127.041 14.8903C128.878 13.256 131.02 12.1059 133.347 11.4401ZM126.061 15.9193C127.163 16.7667 128.388 17.4931 129.673 18.0984C128.816 20.5195 128.326 23.1223 128.204 25.7251H121.959C122.143 22.0328 123.551 18.5826 126.061 15.9193ZM121.959 27.1173H128.204C128.265 29.72 128.755 32.3228 129.673 34.8045C128.449 35.4704 127.286 36.2573 126.245 37.1652C123.673 34.3808 122.143 30.8096 121.959 27.1173ZM127.347 38.0731C128.265 37.2863 129.245 36.6204 130.286 36.0757C131.082 37.9521 132.184 39.7074 133.408 41.3417C131.143 40.7364 129.061 39.5864 127.347 38.0731ZM136.959 41.947C136.469 41.947 136.041 41.8865 135.551 41.826C133.837 39.9496 132.49 37.831 131.449 35.4704C133.163 34.744 135.061 34.3203 136.898 34.2598V41.947H136.959ZM136.959 32.8676C134.878 32.9281 132.857 33.4124 130.959 34.1992C130.163 31.8991 129.673 29.5385 129.612 27.1173H136.959V32.8676ZM136.959 25.6646H129.612C129.673 23.2434 130.163 20.8827 130.959 18.5826C132.857 19.309 134.878 19.7327 136.959 19.7932V25.6646ZM136.959 18.401C135.061 18.3405 133.224 17.9773 131.51 17.3115C132.49 15.0113 133.898 12.8928 135.551 11.0164C136.041 10.9559 136.469 10.8953 136.959 10.8953V18.401ZM138.429 10.8348C138.918 10.8348 139.347 10.8953 139.837 10.9559C141.551 12.8323 142.898 14.9508 143.878 17.3115C142.102 17.9773 140.265 18.3405 138.429 18.401V10.8348ZM138.429 19.8537C140.51 19.7932 142.531 19.3695 144.429 18.6431C145.224 20.9433 145.653 23.3039 145.714 25.7251H138.367L138.429 19.8537ZM138.429 27.1173H145.775C145.714 29.5385 145.286 31.8991 144.429 34.1992C142.531 33.4124 140.51 32.9886 138.429 32.8676V27.1173ZM138.429 41.947V34.2598C140.326 34.3203 142.163 34.744 143.878 35.4704C142.898 37.7705 141.49 39.9496 139.775 41.826C139.286 41.8865 138.857 41.8865 138.429 41.947ZM141.98 41.3417C143.265 39.7074 144.306 37.9521 145.102 36.0757C146.143 36.6204 147.122 37.2863 148.041 38.0731C146.326 39.5864 144.245 40.7364 141.98 41.3417ZM149.082 37.1047C148.041 36.1967 146.877 35.4098 145.653 34.744C146.571 32.2623 147.061 29.72 147.122 27.0567H153.367C153.245 30.8096 151.714 34.3808 149.082 37.1047ZM153.429 25.6646H147.122C147.061 23.0618 146.571 20.5195 145.714 18.0984C147 17.4931 148.224 16.7667 149.326 15.9193C151.775 18.5826 153.245 22.0328 153.429 25.6646ZM148.286 14.8903C147.306 15.6166 146.265 16.2219 145.163 16.7667C144.367 14.8903 143.265 13.0744 141.98 11.4401C142.775 11.6822 143.51 11.9243 144.306 12.2875L143.633 13.1955L145.286 13.6192L145.959 13.1349C146.755 13.6797 147.551 14.2245 148.286 14.8903Z" fill="white"/>
</svg>
